<?xml version="1.0" encoding="UTF-8"?> <svg xmlns="http://www.w3.org/2000/svg" width="100" height="100" viewBox="0 0 100 100" fill="none"> <path fill-rule="evenodd" clip-rule="evenodd" d="M45.6664 10.1721C44.9105 10.4356 44.199 11.0475 43.8279 11.7531C42.9945 13.3384 43.639 15.5324 45.4921 17.4181C46.4485 18.3912 48.7513 20.0008 49.1873 20.0008C49.6466 20.0008 51.6203 18.6806 52.7221 17.6366C54.1853 16.2499 54.8612 15.0298 54.9644 13.5885C55.0245 12.7507 54.9773 12.4292 54.7208 11.9312C53.6922 9.93523 51.4782 9.40414 49.6948 10.7257L49.1736 11.112L48.8299 10.7899C48.0566 10.0651 46.7208 9.80422 45.6664 10.1721ZM47.6361 11.4745C47.8912 11.6061 48.2768 11.9935 48.4932 12.3354C49.001 13.1382 49.3843 13.1401 49.9134 12.3426C50.839 10.9469 52.6224 10.8855 53.4387 12.2213C54.361 13.7304 52.9936 16.2266 50.2494 18.0431C49.3584 18.6331 49.3316 18.6398 48.8316 18.4019C48.1788 18.0913 46.5663 16.7964 45.9499 16.0876C44.8019 14.768 44.4004 13.0778 45.0146 12.1512C45.5616 11.326 46.7523 11.0185 47.6361 11.4745ZM62.2182 23.0865C60.9744 23.2263 57.7451 23.9437 56.0438 24.4582C52.6061 25.4978 50.0677 26.7949 49.4589 27.8233C49.1914 28.2752 49.1892 28.3722 49.4209 29.4906C49.5563 30.1436 49.667 30.7139 49.667 30.7577C49.667 30.8015 49.3867 30.5849 49.0442 30.2761C46.926 28.3669 39.3778 26.0985 35.1003 26.0859C33.492 26.081 32.9582 26.204 32.5451 26.6743C32.3074 26.9447 24.8785 49.306 24.3364 51.3825C24.0263 52.5702 24.0236 55.0323 24.331 56.2428C24.4612 56.7558 24.8597 57.7744 25.2163 58.5061C25.734 59.5685 26.1211 60.0891 27.1366 61.0896C27.8362 61.7788 28.7438 62.5182 29.1537 62.7328C29.5635 62.9475 29.898 63.2288 29.8969 63.3581C29.8958 63.4874 28.7388 67.8898 27.3258 73.1413C25.0712 81.5214 24.7211 82.6868 24.4648 82.669C24.304 82.6579 23.29 82.527 22.2114 82.3783C19.003 81.9357 16.4634 82.2653 15.4736 83.2528C14.9761 83.7492 14.8517 84.3415 15.1906 84.6015C15.2985 84.6843 19.9608 85.9731 25.5512 87.4657C34.9094 89.964 35.736 90.1594 35.9693 89.9265C36.2809 89.6156 36.2759 88.8956 35.9579 88.282C35.3173 87.0461 32.5247 85.2404 29.5962 84.1685C28.8513 83.8958 28.423 83.6557 28.4471 83.5246C28.4683 83.4095 29.6396 79.0188 31.0499 73.7674L33.6143 64.2193L35.1689 64.116C37.7092 63.9471 39.7375 63.0496 41.6365 61.2541C42.9216 60.039 43.838 58.6234 44.3276 57.0974C44.5071 56.5378 45.7836 50.762 47.164 44.2623C48.5445 37.7625 49.7252 32.2868 49.7882 32.0941C49.8649 31.8585 50.6434 35.2711 52.1625 42.5031C53.4057 48.4207 54.5498 53.6341 54.7049 54.0882C55.2117 55.5709 55.9975 56.8286 57.1202 57.9531C59.0115 59.8472 61.3773 60.921 64.081 61.1126L65.4384 61.2087L68.0081 70.7751C69.4213 76.0365 70.6022 80.4119 70.632 80.498C70.662 80.5841 70.1402 80.8569 69.4725 81.1042C66.5622 82.1824 64.1941 83.6185 63.3032 84.8455C62.9151 85.38 62.8395 85.6215 62.8778 86.2055C62.9187 86.8327 62.9702 86.9209 63.3186 86.9616C63.7912 87.0165 83.4796 81.7729 83.8017 81.5062C84.3503 81.0519 83.7023 80.019 82.5752 79.5508C81.6803 79.1791 78.4464 79.0614 76.5576 79.3319C75.7898 79.4417 74.955 79.5379 74.7025 79.5454L74.2435 79.5588L71.6898 70.089C70.2851 64.8806 69.1326 60.5059 69.1287 60.3675C69.1245 60.2237 69.5355 59.8607 70.0878 59.5207C72.0332 58.3227 73.6635 56.2633 74.4841 53.9669C74.8033 53.074 74.8466 52.6716 74.8379 50.6798L74.828 48.4102L70.8139 36.1527C68.606 29.4109 66.6759 23.7588 66.525 23.5923C66.3739 23.4259 65.9961 23.2191 65.6855 23.133C65.1415 22.9823 63.3588 22.9583 62.2182 23.0865ZM65.3276 24.3627C65.4768 24.4571 65.3149 24.6341 64.7476 24.9974C61.8285 26.8662 54.057 28.865 51.2359 28.4726L50.5299 28.3743L51.079 27.9617C53.3448 26.259 60.1752 24.2854 63.944 24.2445C64.5912 24.2375 65.2137 24.2907 65.3276 24.3627ZM68.9688 34.5577C70.5448 39.4217 71.8622 43.4776 71.8964 43.5707C71.9709 43.7734 70.0611 44.6772 68.9157 44.9815C68.4679 45.1005 67.5368 45.198 66.8464 45.1981C65.5585 45.1986 64.7463 44.9712 61.5122 43.7043C60.6008 43.3474 60.1604 43.2721 58.9235 43.2624C57.228 43.2491 56.357 43.4856 54.9195 44.3491C54.421 44.6486 53.9937 44.8744 53.9701 44.8508C53.9464 44.8272 53.246 41.5683 52.4137 37.6088C51.5814 33.6494 50.8647 30.2607 50.8211 30.0787C50.7444 29.758 50.8039 29.7453 52.754 29.6659C56.6362 29.5078 62.5514 27.8299 65.3478 26.0934C65.7366 25.852 66.0656 25.6678 66.0791 25.6842C66.0926 25.7005 67.3929 29.6936 68.9688 34.5577ZM39.5477 27.8988C43.7393 28.8456 48.6946 30.8441 48.3261 31.4391C48.1736 31.6853 45.8636 31.5987 43.9953 31.277C41.656 30.8743 38.6669 30.0408 36.75 29.2568C35.1286 28.5936 33.6643 27.749 33.6643 27.4769C33.6643 27.1643 37.5207 27.4408 39.5477 27.8988ZM35.2332 29.9691C38.5522 31.4926 44.0733 32.8359 47.0155 32.8359C47.6973 32.8359 48.2554 32.8888 48.2558 32.9533C48.2561 33.0178 47.5376 36.4596 46.6592 40.6016L45.0617 48.1325L43.952 47.5404C42.5337 46.7834 41.7775 46.5904 40.2447 46.5937C39.3302 46.5958 38.7293 46.6966 37.9438 46.98C37.3591 47.1909 36.2098 47.6077 35.3901 47.9062C33.5738 48.5675 32.4897 48.7139 31.0753 48.4885C29.9583 48.3103 28.0442 47.5897 27.4275 47.115L27.074 46.8429L29.9936 37.9219C31.5995 33.0154 32.9459 28.947 32.9858 28.8811C33.0256 28.8152 33.3535 28.944 33.7144 29.1672C34.0751 29.3904 34.7586 29.7514 35.2332 29.9691ZM61.2061 44.9713C64.5645 46.2455 64.9479 46.3517 66.4384 46.4228C68.1878 46.5061 69.1913 46.3154 70.9733 45.5611C71.6898 45.2578 72.2995 45.0352 72.3282 45.0663C72.3569 45.0976 72.6448 45.9332 72.9681 46.9232C74.342 51.1297 73.7104 54.3937 70.9926 57.134C69.6102 58.5279 68.2145 59.2887 66.2918 59.6965C62.5405 60.4923 58.3162 58.5139 56.5399 55.1295C55.8474 53.8099 55.6547 53.1518 54.8502 49.3534L54.2212 46.3837L54.6505 46.0359C56.5929 44.4622 58.8835 44.0902 61.2061 44.9713ZM43.0957 48.5213C44.9431 49.4328 44.8781 49.0973 43.9991 53.1842C43.4126 55.9115 43.115 56.9621 42.6801 57.8415C40.4343 62.3825 34.9008 64.2021 30.2639 61.9246C26.9617 60.3027 24.9086 56.4389 25.3625 52.7007C25.4974 51.5897 26.5571 48.1198 26.7329 48.2133C28.9642 49.399 30.3971 49.805 32.3308 49.7995C33.9812 49.795 34.0658 49.7724 38.2141 48.2338C39.0527 47.9228 39.4724 47.8631 40.5762 47.8981C41.7623 47.9356 42.0555 48.0082 43.0957 48.5213ZM70.4544 70.2581C71.8743 75.5413 72.9846 79.9112 72.922 79.9688C72.7761 80.1034 71.7885 80.3133 71.7885 80.2098C71.7885 80.1253 66.8369 61.6301 66.6941 61.1811C66.6273 60.9714 66.7415 60.8753 67.1977 60.7566C67.5223 60.6723 67.8069 60.6142 67.8305 60.6277C67.8538 60.6411 69.0346 64.9747 70.4544 70.2581ZM32.1845 63.9665C32.2939 64.0293 31.4548 67.4124 29.7733 73.6891C28.3547 78.9836 27.1788 83.3335 27.16 83.3554C27.1278 83.3928 26.1093 83.0764 26.0083 82.9975C25.9687 82.9667 30.2206 66.9762 30.9291 64.4915C31.1516 63.7109 31.1861 63.6732 31.5904 63.7691C31.8251 63.8247 32.0924 63.9136 32.1845 63.9665ZM81.9709 80.6393C82.1196 80.735 79.3807 81.5312 73.4989 83.1024C68.7183 84.3795 64.7099 85.4253 64.5916 85.4265C63.8687 85.4334 66.4236 83.7398 68.5335 82.8135C70.402 81.993 73.2613 81.1441 75.5538 80.7293C77.3003 80.4133 81.5269 80.354 81.9709 80.6393ZM23.4368 83.7738C27.657 84.5335 32.0694 86.261 33.999 87.9089C34.341 88.2008 34.5926 88.4677 34.5583 88.5019C34.5241 88.5361 30.7965 87.574 26.275 86.3639C21.7533 85.1537 17.7819 84.0915 17.4496 84.0032C15.3586 83.4479 20.5264 83.2499 23.4368 83.7738Z" fill="black"></path> </svg> 