<?xml version="1.0" encoding="UTF-8"?> <svg xmlns="http://www.w3.org/2000/svg" width="100" height="100" viewBox="0 0 100 100" fill="none"> <path d="M14 70.0615H85.3878" stroke="black" stroke-width="1.4" stroke-linecap="round" stroke-linejoin="round"></path> <path fill-rule="evenodd" clip-rule="evenodd" d="M80.4913 70C80.6117 68.9141 80.6735 67.811 80.6735 66.6938C80.6735 49.9562 66.8035 36.3877 49.6939 36.3877C32.5844 36.3877 18.7144 49.9562 18.7144 66.6938C18.7144 67.811 18.7762 68.9141 18.8966 70H20.3059C20.1794 68.9148 20.1144 67.8116 20.1144 66.6938C20.1144 50.7583 33.3284 37.7877 49.6939 37.7877C66.0595 37.7877 79.2735 50.7583 79.2735 66.6938C79.2735 67.8116 79.2085 68.9148 79.082 70H80.4913Z" fill="black"></path> <path d="M53.0347 33.3673C53.0347 34.7264 51.6639 36.0347 49.6939 36.0347C47.7239 36.0347 46.3531 34.7264 46.3531 33.3673C46.3531 32.0083 47.7239 30.7 49.6939 30.7C51.6639 30.7 53.0347 32.0083 53.0347 33.3673Z" stroke="black" stroke-width="1.4"></path> <path d="M27 57L27.5549 55.8108C29.4443 51.7622 32.83 48.6039 37 47V47" stroke="black" stroke-width="1.4" stroke-linecap="round"></path> <path d="M61.3157 33.0488L61.646 28.0597" stroke="black" stroke-width="1.4" stroke-linecap="round"></path> <path d="M63.9627 33.6032L65.9028 28.9949" stroke="black" stroke-width="1.4" stroke-linecap="round"></path> <path d="M65.9999 34.949L69.5982 31.4774" stroke="black" stroke-width="1.4" stroke-linecap="round"></path> </svg> 