<?xml version="1.0" encoding="UTF-8"?> <svg xmlns="http://www.w3.org/2000/svg" width="100" height="100" viewBox="0 0 100 100" fill="none"> <path fill-rule="evenodd" clip-rule="evenodd" d="M62.0196 17.1853C61.9814 17.2855 61.9675 18.3814 61.989 19.6207L62.0278 21.8741L62.4429 21.9215C63.1297 21.9999 63.2234 21.7102 63.2234 19.5082C63.2234 18.4279 63.1581 17.4269 63.0778 17.2762C62.91 16.9617 62.1308 16.8947 62.0196 17.1853ZM55.1908 17.6931C54.8874 17.9398 54.8792 17.9885 55.0542 18.503C55.1567 18.804 55.5967 19.781 56.032 20.674C56.6648 21.9719 56.8887 22.3069 57.1478 22.3438C57.6106 22.4096 57.9179 22.1059 57.8294 21.6702C57.6902 20.9849 56.0663 17.7277 55.7899 17.5793C55.5753 17.464 55.4414 17.4895 55.1908 17.6931ZM69.2588 17.5665C69.1359 17.6386 68.6097 18.618 68.0894 19.7427C67.2978 21.454 67.1687 21.8351 67.2981 22.0779C67.3987 22.2666 67.5932 22.3682 67.8534 22.3682C68.2022 22.3682 68.3041 22.2635 68.6422 21.5564C70.2358 18.2239 70.35 17.845 69.8434 17.5728C69.5216 17.4 69.5422 17.4003 69.2588 17.5665ZM58.7485 25.0155C58.0798 25.5923 56.472 27.634 56.472 27.9064C56.472 28.2242 61.9399 33.9229 62.4409 34.1272C62.6672 34.2195 63.221 33.7287 65.7111 31.2292C67.6821 29.2507 68.7089 28.1201 68.7089 27.9281C68.7089 27.6573 68.0735 26.8418 66.7149 25.3684L66.1616 24.7684H62.5983C59.4074 24.7684 59.005 24.7942 58.7485 25.0155ZM66.1602 26.6038L66.6123 27.1685H62.5891H58.5659L59.031 26.6063L59.496 26.0441L62.6021 26.0416L65.708 26.039L66.1602 26.6038ZM64.6942 30.4511C63.629 31.5577 62.6883 32.4705 62.6036 32.4797C62.519 32.4888 61.566 31.5836 60.486 30.4678L58.5223 28.4392H62.5765H66.6307L64.6942 30.4511ZM47.5051 29.7452C47.0234 30.3081 46.6286 30.891 46.6278 31.0406C46.6256 31.4138 50.6728 35.4985 51.0448 35.4985C51.456 35.4985 55.3337 31.4387 55.3411 31.0005C55.3445 30.7962 55.0342 30.2926 54.538 29.6972L53.7292 28.7269L51.0551 28.7243L48.381 28.7216L47.5051 29.7452ZM71.4434 28.8296C71.1588 29.0281 69.6934 30.8442 69.6934 30.9986C69.6934 31.2295 73.6437 35.2644 74.0249 35.423C74.3229 35.5469 74.5402 35.3692 76.4534 33.437C77.7485 32.129 78.5546 31.2072 78.5546 31.0341C78.5546 30.8796 78.1636 30.2961 77.6858 29.7374L76.817 28.7216L74.2046 28.7237C72.7678 28.725 71.5253 28.7725 71.4434 28.8296ZM53.5564 30.4841L53.9461 30.9556L52.5015 32.4598L51.0568 33.9639L49.5972 32.4871L48.1377 31.0103L48.5423 30.5014L48.947 29.9922L51.0568 30.0024L53.1666 30.0126L53.5564 30.4841ZM76.6723 30.4954L77.0547 30.9988L75.5975 32.4665L74.1402 33.9342L72.796 32.508C72.0566 31.7236 71.4288 31.0222 71.401 30.9492C71.3731 30.8764 71.5274 30.6311 71.7437 30.4045L72.1372 29.9922H74.2135H76.2898L76.6723 30.4954ZM33.9897 36.4269C22.619 38.0894 14 48.0988 14 59.6413C14 64.2633 15.3953 68.8152 18.0463 72.8421C19.3561 74.8317 22.2652 77.7401 24.3078 79.102C26.8843 80.8198 29.7091 82.0188 32.751 82.6856C33.9969 82.9586 34.5896 82.998 37.4134 82.9956C40.2273 82.9931 40.8296 82.9523 42.0402 82.6815C44.2285 82.192 46.2608 81.4491 48.2568 80.4088C49.925 79.5397 50.1237 79.4684 50.3666 79.6518C50.9574 80.0981 53.7011 81.3944 55.059 81.869C57.786 82.8217 58.9497 82.9965 62.5904 82.9999C65.4329 83.0026 66.0004 82.9643 67.267 82.6849C73.4026 81.3315 78.3991 78.0046 81.9067 72.9373C82.829 71.6051 84.329 68.5711 84.8132 67.0592C86.4498 61.947 86.3938 56.8784 84.6448 51.8183C82.1171 44.5059 75.9058 38.8144 68.3749 36.9099C66.0204 36.3145 64.3764 36.1518 61.6908 36.2482C57.7141 36.3911 54.1847 37.4056 50.8597 39.3618L49.9918 39.8724L49.4619 39.5365C47.1292 38.0585 43.7993 36.8749 40.7007 36.4227C38.8981 36.1595 35.8049 36.1615 33.9897 36.4269ZM41.7033 37.8868C42.4382 38.0441 43.6661 38.3787 44.4321 38.6304C45.8888 39.1089 48.6208 40.4087 48.681 40.6518C48.7003 40.7294 48.1845 41.2237 47.535 41.7502L46.3538 42.7074L45.5405 42.2959C44.439 41.7383 42.4149 41.0715 40.9071 40.7694C39.0472 40.3968 35.4894 40.4317 33.5828 40.8411C29.3856 41.7427 25.8758 43.791 23.0297 47.0002C20.8005 49.5136 19.2122 52.8007 18.5586 56.2528C18.2144 58.071 18.2147 61.2139 18.5592 63.0297C19.9037 70.1162 24.7122 75.656 31.4705 77.9042C33.1293 78.4561 34.6895 78.7186 36.7804 78.7976C39.7257 78.909 42.474 78.3787 45.2197 77.1696L46.4152 76.643L47.5704 77.6235C48.2057 78.1628 48.6914 78.6595 48.6496 78.7273C48.4847 78.9953 45.9333 80.1666 44.3769 80.6889C41.7686 81.5643 39.7413 81.8526 36.7804 81.7692C33.1652 81.6672 30.5768 81.0378 27.6025 79.5374C20.5484 75.9788 16.0842 69.3987 15.3726 61.5108C14.9227 56.5234 16.2055 51.5714 19.0754 47.2169C20.148 45.5893 23.1321 42.536 24.6928 41.4692C27.3053 39.6837 30.5708 38.3256 33.4047 37.8466C34.1397 37.7223 34.8992 37.5921 35.0926 37.5574C36.0151 37.3915 40.4144 37.6108 41.7033 37.8868ZM66.8804 37.8792C71.1319 38.7645 74.7864 40.6769 77.816 43.6018C81.4776 47.1366 83.6625 51.3096 84.4767 56.3234C84.7129 57.7773 84.7129 61.5052 84.4767 62.9591C83.6646 67.9598 81.5034 72.1051 77.8736 75.6255C74.9096 78.4997 71.502 80.3413 67.3023 81.3384C65.1067 81.8597 61.4207 81.9527 59.053 81.5466C47.6942 79.5983 39.6702 69.3769 40.5822 58.0176C40.8332 54.8904 41.4489 52.6355 42.8179 49.8288C43.928 47.5529 45.1088 45.9167 47.0482 43.9672C50.5376 40.4593 54.8753 38.2991 59.7773 37.6273C61.3385 37.4134 65.3223 37.5546 66.8804 37.8792ZM60.2947 40.587C51.9536 41.6388 45.2346 48.0719 43.8074 56.3727C42.4583 64.2186 46.0882 72.0539 52.9366 76.0791C56.371 78.0976 59.8475 78.9727 63.7156 78.7921C69.4284 78.5254 74.6203 75.7871 78.0312 71.2415C79.7513 68.9495 80.8979 66.4388 81.5289 63.583C81.9525 61.6653 81.9916 57.9914 81.6086 56.0859C80.2482 49.3185 75.5612 43.8294 69.2276 41.5866C66.6066 40.6584 62.9617 40.2505 60.2947 40.587ZM41.0074 42.1356C42.461 42.4328 45.3603 43.4619 45.3603 43.6806C45.3603 43.7429 44.9963 44.2305 44.5516 44.7642C41.8767 47.9731 40.1387 51.9003 39.4356 56.3234C39.1436 58.1599 39.209 61.8182 39.5685 63.7611C40.3127 67.7824 41.927 71.2937 44.5094 74.5077C44.9959 75.1132 45.3704 75.6296 45.3419 75.6551C45.1455 75.8312 43.9866 76.3264 43.0395 76.639C41.3587 77.1937 40.1249 77.4249 38.3158 77.5237C30.4554 77.9529 23.2412 73.1114 20.5547 65.6041C19.3062 62.1147 19.2444 57.7519 20.3938 54.2199C22.5709 47.5298 28.3432 42.7334 35.2735 41.8559C36.7627 41.6675 39.3299 41.7926 41.0074 42.1356ZM66.2829 42.0605C72.6137 43.2925 77.9013 47.9601 79.8884 54.0708C80.5144 55.9956 80.7272 57.429 80.7258 59.7118C80.7239 62.7951 80.1842 65.101 78.8479 67.7359C76.396 72.5699 72.0746 75.9352 66.7397 77.1652C65.168 77.5277 61.9683 77.6667 60.3994 77.441C58.6939 77.1954 57.1335 76.775 55.8039 76.2025C55.1656 75.9277 54.6435 75.6804 54.6435 75.6527C54.6435 75.625 55.0664 75.0767 55.5833 74.4341C61.4508 67.1403 62.4613 56.9858 58.1362 48.7817C57.3136 47.2217 56.6586 46.2302 55.4733 44.7512C54.9985 44.1587 54.6333 43.651 54.6619 43.6232C54.6905 43.5952 55.266 43.3433 55.9407 43.0634C57.2603 42.5158 58.9035 42.0814 60.4806 41.863C61.8077 41.6792 64.8569 41.783 66.2829 42.0605ZM54.1153 45.135C56.5232 47.9639 58.3385 51.6283 59.0634 55.1233C60.4934 62.0166 58.5518 69.2828 53.8984 74.4526L53.3645 75.0459L52.4919 74.4082C52.0121 74.0573 51.4646 73.647 51.2752 73.4964L50.9309 73.2225L51.7196 72.3675C53.9609 69.9374 55.693 66.2828 56.2682 62.7698C56.641 60.4935 56.5001 57.1294 55.9423 54.9821C55.1767 52.036 53.8668 49.4945 51.9454 47.2275L51.0056 46.1186L51.3125 45.8357C51.7127 45.4669 53.2545 44.3932 53.3838 44.3932C53.4389 44.3932 53.7682 44.727 54.1153 45.135ZM50.7804 47.8169C52.9243 50.2103 54.4249 53.3465 54.9941 56.623C55.267 58.1931 55.2654 61.0931 54.9912 62.6935C54.4368 65.9275 52.9259 69.0936 50.8092 71.4569L50.0267 72.3309L49.3401 71.5981C47.2018 69.3159 45.5871 65.9829 45.0097 62.6595C44.7372 61.0912 44.7396 58.3846 45.0149 56.6802C45.4038 54.2731 46.4389 51.707 47.8919 49.5476C48.601 48.4941 49.8116 47.0757 50.0019 47.0757C50.0649 47.0757 50.4153 47.4093 50.7804 47.8169Z" fill="black"></path> </svg> 